<?xml version="1.0" encoding="utf-8"?>
<!-- Generator: Adobe Illustrator 23.0.0, SVG Export Plug-In . SVG Version: 6.00 Build 0)  -->
<svg version="1.1" id="Calque_1" xmlns="http://www.w3.org/2000/svg" xmlns:xlink="http://www.w3.org/1999/xlink" x="0px" y="0px"
	 viewBox="0 0 1500 1000" style="enable-background:new 0 0 1500 1000;" xml:space="preserve">
<style type="text/css">
	.st0{fill:#034F26;}
	.st1{fill:#3FAA36;}
</style>
<path class="st0" d="M729.28,497.94h-9.88l-3.98,12.2h-1.71l10.63-32.58l10.61,32.58h-1.69L729.28,497.94z M728.69,496.15
	l-4.35-13.35l-4.35,13.35H728.69z"/>
<path class="st0" d="M747.35,499.07c-0.15,0.01-0.31,0.02-0.48,0.02h-4.85v11.05h-1.61v-31.85h7.49c2.17,0.33,4.02,1.35,5.54,3.04
	c1.82,2.03,2.73,4.48,2.73,7.35c0,2.88-0.91,5.33-2.73,7.36c-1.26,1.41-2.7,2.33-4.33,2.77l6.58,11.33h-1.98L747.35,499.07z
	 M742.02,480.1v17.18h4.85c2.12,0,3.92-0.84,5.43-2.52c1.5-1.68,2.26-3.71,2.26-6.08s-0.75-4.4-2.26-6.07
	c-1.5-1.67-3.31-2.51-5.43-2.51H742.02z"/>
<rect x="762.09" y="478.29" class="st0" width="1.6" height="31.85"/>
<polygon class="st0" points="771.29,478.29 773.06,478.29 787.71,506.62 787.71,478.29 789.32,478.29 789.32,510.14 787.71,510.14 
	772.9,481.54 772.9,510.14 771.29,510.14 "/>
<path class="st0" d="M810.35,497.94h-9.88l-3.98,12.2h-1.71l10.63-32.58l10.61,32.58h-1.69L810.35,497.94z M809.76,496.15
	l-4.35-13.35l-4.35,13.35H809.76z"/>
<path class="st0" d="M829.59,492.5c-2.03-0.76-3.64-1.79-4.81-3.1c-1.18-1.32-1.77-2.91-1.77-4.78c0-1.83,0.59-3.41,1.77-4.73
	c1.18-1.32,2.6-1.98,4.28-1.98c1.66,0,3.09,0.66,4.28,1.97c0.65,0.7,1.11,1.49,1.36,2.37l-1.45,0.64c-0.21-0.65-0.56-1.25-1.05-1.79
	c-0.87-0.96-1.91-1.43-3.14-1.43c-1.22,0-2.27,0.48-3.14,1.44c-0.87,0.96-1.3,2.13-1.3,3.51c0,1.37,0.43,2.53,1.3,3.5
	c0.81,0.89,1.92,1.71,3.35,2.45c2.28,0.82,4.2,2.1,5.76,3.84c1.65,1.83,2.48,4.05,2.48,6.65c0,2.61-0.83,4.84-2.48,6.69
	c-1.65,1.84-3.64,2.77-5.97,2.77c-2.33,0-4.32-0.93-5.97-2.79c-1.32-1.47-2.11-3.18-2.37-5.14l1.52-0.62
	c0.17,1.72,0.83,3.23,1.98,4.52c1.34,1.5,2.96,2.25,4.85,2.25c1.9,0,3.52-0.75,4.87-2.25c1.34-1.5,2.02-3.31,2.02-5.43
	c0-2.11-0.67-3.91-2.02-5.41C832.75,494.34,831.3,493.29,829.59,492.5"/>
<path class="st1" d="M720.16,530.54v-7.41h1.04l2.38,3.75c0.55,0.87,0.98,1.65,1.33,2.41l0.02-0.01c-0.09-0.99-0.11-1.89-0.11-3.05
	v-3.1h0.9v7.41h-0.97l-2.36-3.76c-0.52-0.83-1.01-1.67-1.39-2.48l-0.03,0.01c0.05,0.93,0.08,1.83,0.08,3.06v3.17H720.16z"/>
<path class="st1" d="M731.9,528.21l-0.77,2.33h-0.99l2.52-7.41h1.16l2.53,7.41h-1.02l-0.79-2.33H731.9z M734.33,527.46l-0.73-2.13
	c-0.16-0.48-0.27-0.92-0.38-1.35h-0.02c-0.11,0.44-0.23,0.89-0.37,1.34l-0.72,2.15H734.33z"/>
<polygon class="st1" points="741.29,523.94 739.03,523.94 739.03,523.13 744.52,523.13 744.52,523.94 742.26,523.94 742.26,530.54 
	741.29,530.54 "/>
<path class="st1" d="M749.61,523.13v4.39c0,1.66,0.74,2.36,1.73,2.36c1.1,0,1.8-0.73,1.8-2.36v-4.39h0.97v4.32
	c0,2.28-1.2,3.21-2.81,3.21c-1.52,0-2.66-0.87-2.66-3.17v-4.37H749.61z"/>
<path class="st1" d="M759.06,523.23c0.48-0.1,1.18-0.15,1.84-0.15c1.02,0,1.68,0.19,2.14,0.6c0.37,0.33,0.58,0.84,0.58,1.41
	c0,0.98-0.61,1.63-1.4,1.89v0.03c0.57,0.2,0.91,0.73,1.09,1.5c0.24,1.04,0.42,1.75,0.57,2.04h-0.99c-0.12-0.21-0.29-0.85-0.5-1.77
	c-0.22-1.02-0.62-1.41-1.49-1.44h-0.9v3.21h-0.96V523.23z M760.02,526.6H761c1.02,0,1.67-0.56,1.67-1.41c0-0.96-0.69-1.38-1.7-1.39
	c-0.46,0-0.79,0.04-0.95,0.09V526.6z"/>
<polygon class="st1" points="772.12,527.07 769.24,527.07 769.24,529.74 772.45,529.74 772.45,530.54 768.28,530.54 768.28,523.13 
	772.29,523.13 772.29,523.93 769.24,523.93 769.24,526.27 772.12,526.27 "/>
<polygon class="st1" points="777,523.13 777.95,523.13 777.95,529.74 781.12,529.74 781.12,530.54 777,530.54 "/>
<path class="st1" d="M790.99,529.38c0.43,0.26,1.06,0.48,1.72,0.48c0.98,0,1.55-0.52,1.55-1.26c0-0.69-0.4-1.09-1.4-1.48
	c-1.21-0.43-1.96-1.06-1.96-2.1c0-1.16,0.96-2.01,2.4-2.01c0.76,0,1.31,0.18,1.64,0.36l-0.26,0.78c-0.24-0.13-0.74-0.35-1.41-0.35
	c-1.01,0-1.4,0.6-1.4,1.11c0,0.69,0.45,1.03,1.47,1.43c1.25,0.48,1.89,1.09,1.89,2.18c0,1.14-0.85,2.13-2.6,2.13
	c-0.71,0-1.5-0.21-1.89-0.47L790.99,529.38z"/>
<path class="st1" d="M799.84,523.22c0.46-0.08,1.07-0.14,1.84-0.14c0.95,0,1.64,0.22,2.08,0.62c0.41,0.35,0.65,0.89,0.65,1.55
	c0,0.67-0.2,1.2-0.57,1.58c-0.51,0.54-1.33,0.82-2.27,0.82c-0.29,0-0.55-0.01-0.77-0.07v2.97h-0.96V523.22z M800.8,526.79
	c0.21,0.06,0.47,0.08,0.79,0.08c1.16,0,1.86-0.56,1.86-1.58c0-0.98-0.69-1.45-1.75-1.45c-0.42,0-0.74,0.03-0.9,0.08V526.79z"/>
<rect x="808.99" y="523.13" class="st1" width="0.96" height="7.41"/>
<path class="st1" d="M814.92,523.23c0.48-0.1,1.18-0.15,1.84-0.15c1.02,0,1.68,0.19,2.14,0.6c0.37,0.33,0.58,0.84,0.58,1.41
	c0,0.98-0.61,1.63-1.4,1.89v0.03c0.57,0.2,0.91,0.73,1.09,1.5c0.24,1.04,0.42,1.75,0.57,2.04h-0.99c-0.12-0.21-0.29-0.85-0.49-1.77
	c-0.22-1.02-0.62-1.41-1.49-1.44h-0.9v3.21h-0.96V523.23z M815.88,526.6h0.98c1.02,0,1.67-0.56,1.67-1.41
	c0-0.96-0.69-1.38-1.71-1.39c-0.46,0-0.79,0.04-0.95,0.09V526.6z"/>
<rect x="824.14" y="523.13" class="st1" width="0.96" height="7.41"/>
<polygon class="st1" points="831.48,523.94 829.22,523.94 829.22,523.13 834.71,523.13 834.71,523.94 832.45,523.94 832.45,530.54 
	831.48,530.54 "/>
<path class="st0" d="M697.55,509.9c2.82-5.71,5.29-11.59,7.16-17.73c0.05-0.17,0.06-0.33,0.04-0.5c0.26,0.04,0.52,0.06,0.77,0.06
	c0.1,0,0.2,0,0.3-0.01c1.84-0.1,3.56-1.1,4.49-2.63c1.15-1.88,1.08-3.92-0.2-5.59c-1.53-2.01-4.48-3.02-6.85-2.34
	c-2.02,0.58-3.3,2.27-3.53,4.64c-0.06,0.63-0.09,1.45,0.19,2.28c0.21,0.62,0.6,1.22,1.14,1.77c0.47,0.47,1.01,0.86,1.59,1.17
	c-0.12,0.13-0.22,0.28-0.27,0.46c-1.69,5.56-3.9,10.94-6.43,16.17c-1.71-1.48-3.99-1.92-6.16-1.14c-2.5,0.9-4.14,3.22-4.2,5.91
	c-0.05,2.74,1.53,5.44,4.07,7.09c-2.15,3.76-4.37,7.46-6.6,11.13c-0.78-3.94-1.69-7.86-2.76-11.75
	c-3.66-15.28-2.85-34.45,2.12-50.12c0.91-2.86,1.95-5.72,3.11-8.57c0.07,0.18,0.13,0.36,0.22,0.55c0.96,2.04,2.31,3.35,3.91,3.79
	c0.39,0.11,0.8,0.16,1.21,0.16c1.25,0,2.54-0.48,3.64-1.37c1.86-1.51,2.83-3.93,2.47-6.18c-0.17-1.1-0.64-2.04-1.34-2.7
	c-0.54-0.52-1.25-0.9-2.16-1.16c-1.61-0.47-3.27-0.43-4.77-0.21c1.37-2.84,2.87-5.68,4.5-8.53c0.11,0.01,0.22,0.02,0.33,0.02
	c0.56,0,1.1-0.07,1.59-0.22c1.41-0.41,2.66-1.48,3.33-2.85c0.63-1.29,0.77-2.8,0.4-4.25c-0.09-0.37-0.24-0.75-0.46-1.13
	c1.37-2.08,2.82-4.17,4.34-6.27c0.41,0.11,0.81,0.16,1.16,0.19c0.4,0.04,0.78,0.05,1.14,0.05c1.91,0,3.36-0.49,4.42-1.48
	c1.17-1.1,1.66-2.65,1.34-4.27c-0.38-1.89-1.77-3.54-3.55-4.22c-1.31-0.5-2.6-0.42-3.73,0.21c-2.26,1.27-2.97,4.17-3.13,5.03v0
	c-0.14,0.75-0.38,2.01,0.29,3.09c0.01,0.02,0.03,0.03,0.04,0.05c-1.43,1.98-2.79,3.94-4.09,5.9c-1.11-0.64-2.7-1.08-5.02-1.12h0
	c-0.77-0.01-1.92,0.04-2.98,0.6c-2.14,1.12-3.07,4.1-2.03,6.5c0.71,1.64,2.21,2.95,4.11,3.65c-1.84,3.26-3.51,6.51-5.02,9.76
	c-0.01,0-0.02,0.01-0.03,0.01c-0.07,0.02-0.14,0.04-0.21,0.07c-0.77-1.17-1.66-2.27-2.6-3.24v0c-1.6-1.64-3.14-2.51-4.73-2.66
	c-2.44-0.24-4.85,1.43-5.49,3.78c-0.64,2.36,0.66,5.06,2.91,6.01c1.02,0.43,2.19,0.55,3.67,0.36c1.8-0.22,3.49-0.78,5.14-1.33
	c-1.62,3.75-3.04,7.5-4.23,11.27c-3.65,11.49-5.1,24.82-4.26,37.22c-0.87-2.33-1.78-4.64-2.76-6.93c-0.69-1.62-1.42-3.23-2.16-4.83
	c2.08-0.97,3.74-3.13,4.44-4.9c0.93-2.36,0.66-5.02-0.71-6.94c-0.73-1.03-1.67-1.54-2.65-1.43c-0.98,0.1-1.78,0.79-2.35,2.02
	c-0.81,1.74-1.19,3.57-1.54,5.37c-1.17-2.39-2.36-4.76-3.54-7.09c-0.78-1.54-1.56-3.09-2.33-4.65c1.5,0.15,3.15-0.29,4.99-1.72
	c1.64-1.27,2.26-3.63,1.65-6.31c-0.45-2.02-1.43-3.41-2.82-4.01c-2.46-1.06-5.12,0.72-6.28,3.06c-0.36,0.73-0.61,1.48-0.84,2.23
	c-2.13-4.51-4.13-9.09-5.79-13.76c-2.07-5.78-3.97-12.84-4.6-20.34c1.15,0.62,2.44,0.94,3.7,0.94c0.82,0,1.64-0.14,2.39-0.41
	c2.14-0.78,3.8-2.89,4.14-5.25c0.29-2.07-0.48-3.93-2.11-5.12c-1.76-1.28-4.57-1.3-6.57-0.75c-0.57,0.16-1.09,0.37-1.55,0.61
	c0.39-4.33,1.34-8.69,3.04-12.91c0.38,0.14,0.77,0.22,1.19,0.22c0.97,0,2.04-0.36,3.07-1.07c0.47-0.32,1.15-0.83,1.59-1.6
	c0.85-1.47,0.75-2.96-0.26-4.11c-1.34-1.52-4.19-2.08-6.21-1.22c-1.58,0.67-2.41,2.04-2.27,3.77c0.05,0.66,0.28,1.31,0.72,2.06
	c0.07,0.12,0.14,0.22,0.22,0.32c-4.79,11.33-4.33,23.52-2.1,33.98c-2.09-1.13-5,0.05-6.42,1.3c-1.08,0.96-1.85,2.33-2.17,3.86
	c-0.23,1.1-0.16,2.07,0.21,2.87c0.23,0.5,0.58,0.96,1.05,1.39c1.15,1.04,2.73,1.57,4.41,1.57c1.08,0,2.21-0.22,3.31-0.68
	c0.45-0.19,1.03-0.46,1.51-0.95c0.17-0.18,0.32-0.37,0.46-0.59c0.32,1,0.65,1.98,0.99,2.92c1.52,4.26,3.31,8.44,5.22,12.55
	c-1.29-1.25-2.64-2.4-4.18-2.92c-2.38-0.81-4.89-0.51-6.73,0.78c-2.14,1.51-3.05,4.36-2.13,6.63c0.62,1.53,2.01,2.77,4.11,3.7
	c1.75,0.77,3.48,1.17,5.09,1.17c0.76,0,1.5-0.09,2.2-0.26c1.79-0.45,3.42-1.51,4.58-2.94c1.11,2.26,2.24,4.51,3.36,6.73
	c1.58,3.13,3.18,6.33,4.73,9.55c-0.34-0.13-0.69-0.27-1.05-0.43c-0.72-0.31-1.46-0.63-2.26-0.85c-1.92-0.52-3.9-0.78-5.87-0.75
	c-0.8,0.01-1.73,0.07-2.61,0.45c-2.03,0.87-2.93,2.96-3.34,4.56c-0.4,1.6-0.62,3.92,0.61,5.84c1.06,1.65,3.11,2.69,5.29,2.69
	c0.1,0,0.2,0,0.3-0.01c1.8-0.08,3.63-0.79,5.45-2.11c2.15-1.56,3.89-3.7,5.03-6.1c0.74,1.6,1.47,3.21,2.16,4.83
	c2.82,6.58,5.19,13.33,7.09,20.19c0.02,0.09,0.04,0.19,0.06,0.29c0.01,0.02,0.02,0.04,0.03,0.06c5.56,20.27,7.07,41.53,4.33,62.5
	l2.4,0.32c2.11-16.18,1.74-32.52-1.04-48.46c0.02-0.03,0.05-0.06,0.07-0.09c2.71-4.45,5.44-8.96,8.06-13.55
	c0.37,0.09,0.73,0.15,1.08,0.15c0.17,0,0.33-0.01,0.49-0.03c1.79-0.23,3.22-1.51,4.03-3.61
	C698.36,514.75,698.33,511.92,697.55,509.9"/>
<path class="st0" d="M707.83,506.15c-0.64,1.23-0.89,2.59-0.72,3.85c0.2,1.45,0.95,2.74,2.07,3.54c0.65,0.47,1.46,0.79,2.4,0.96
	c0.42,0.08,0.84,0.11,1.26,0.11c1.84,0,3.54-0.73,4.54-2.02c1.2-1.55,1.25-3.5,1.21-5.22c-0.07-2.5-1.39-4.28-3.54-4.77
	C712.35,501.99,709.19,503.54,707.83,506.15"/>
<path class="st1" d="M767.34,409.38c-13.51,0-26.54,2.8-38.75,8.33l1.2,2.65c11.83-5.35,24.46-8.07,37.55-8.07
	c50.27,0,91.18,40.9,91.18,91.18c0,50.27-40.9,91.18-91.18,91.18c-25.74,0-50.41-10.96-67.68-30.08l-2.16,1.95
	c17.82,19.72,43.27,31.04,69.84,31.04c51.88,0,94.09-42.21,94.09-94.09S819.22,409.38,767.34,409.38"/>
</svg>
